<svg width="504" height="487" viewBox="0 0 504 487" fill="none" xmlns="http://www.w3.org/2000/svg">
<path fill-rule="evenodd" clip-rule="evenodd" d="M148.416 8C143.835 12.4 139.787 16 139.421 16C139.054 16 135.866 19.346 132.335 23.435C128.805 27.524 125.578 30.899 125.166 30.935C124.754 30.971 123.605 31.787 122.613 32.75C121.621 33.713 117.281 37.65 112.968 41.5C108.655 45.35 104.291 49.287 103.271 50.25C102.251 51.213 100.966 52 100.416 52C99.866 52 99.416 52.499 99.416 53.108C99.416 53.717 96.991 56.565 94.026 59.436C89.002 64.303 88.721 64.82 89.888 67.078C94 75.038 96.52 81.103 97.545 85.5C98.186 88.25 99.505 92.75 100.478 95.5C102.37 100.854 103.454 104.723 105.94 115C107.498 121.439 109.711 145.869 108.953 148.259C108.736 148.942 108.33 153.123 108.051 157.55C107.772 161.978 106.847 167.603 105.994 170.05C105.142 172.498 104.436 175.4 104.424 176.5C104.412 177.6 103.071 182.325 101.444 187C99.816 191.675 98.469 196.287 98.45 197.25C98.431 198.213 97.966 199 97.416 199C96.866 199 96.416 200.168 96.416 201.596C96.416 203.023 95.612 205.386 94.63 206.846C91.611 211.332 90.431 214.241 83.81 233.5C79.36 246.447 79.049 247.486 78.277 252C77.854 254.475 77.064 258.75 76.522 261.5C74.952 269.459 75.165 290.358 76.855 294.216C77.646 296.022 78.558 298.749 78.88 300.275C79.203 301.802 80.252 303.836 81.212 304.796C82.172 305.756 84.144 308.557 85.594 311.02C90.462 319.29 108.494 335.199 114.491 336.516C116.087 336.867 117.65 337.569 117.964 338.077C118.277 338.585 119.26 339 120.146 339C121.033 339 122.469 339.621 123.337 340.38C126.14 342.83 138.159 349 140.129 349C141.18 349 143.904 349.9 146.182 351.001C148.459 352.101 157.206 355.529 165.62 358.618C174.033 361.707 181.366 364.584 181.916 365.01C182.466 365.436 185.841 366.582 189.416 367.556C197.906 369.869 207.383 374.322 215.229 379.685C218.701 382.058 221.744 384 221.991 384C222.851 384 234.198 392.032 235.424 393.51C236.104 394.329 237.218 395 237.899 395C238.579 395 240.806 396.575 242.847 398.5C244.888 400.425 246.814 402 247.127 402C249.093 402 251.564 408.886 249.666 409.074C249.253 409.115 247.808 409.352 246.455 409.6C245.101 409.849 243.301 409.748 242.455 409.377C241.608 409.006 237.862 408.811 234.129 408.943C230.396 409.075 226.796 408.745 226.129 408.21C224.893 407.219 223.849 407.013 210.054 405.04C202.464 403.955 192.24 401.627 190.593 400.61C190.154 400.338 187.347 400.022 184.355 399.907C181.364 399.792 178.396 399.296 177.761 398.806C177.126 398.315 173.751 397.059 170.261 396.014C162.14 393.582 157.19 391.763 149.83 388.504C146.577 387.064 142.904 385.462 141.666 384.943C135.867 382.513 133.694 381.378 130.862 379.301C129.183 378.07 126.145 376.367 124.112 375.518C122.079 374.668 120.416 373.529 120.416 372.987C120.416 372.444 119.944 372 119.368 372C118.791 372 116.654 371.164 114.618 370.143C101.645 363.634 98.557 361.936 98.255 361.148C98.068 360.662 96.996 359.979 95.871 359.63C94.178 359.105 92.463 360.718 85.918 368.998C81.569 374.499 77.731 379 77.39 379C77.049 379 74.328 376.718 71.343 373.93C68.358 371.141 63.891 367.528 61.416 365.899C56.964 362.971 49.937 357.236 46.398 353.644C43.58 350.783 42.349 352.53 42.394 359.329C42.416 362.723 42.255 367.75 42.034 370.5C41.814 373.25 41.308 380 40.909 385.5C40.51 391 39.899 395.812 39.55 396.194C39.201 396.576 35.541 397.362 31.416 397.941C17.552 399.888 10.922 401.17 9.96596 402.088C9.44396 402.589 7.10797 403 4.77497 403C2.44197 403 0.304966 403.37 0.0259661 403.822C-0.848034 405.236 20.586 426.286 27.416 430.722C37.314 437.151 37.37 437.193 42.656 442C47.387 446.303 57.064 452.93 58.686 452.977C59.109 452.99 61.276 454.149 63.501 455.554C74.959 462.787 76.536 463.191 79.861 459.75C85.416 454.003 95.48 445 96.35 445C96.882 445 97.676 445.583 98.116 446.296C99.55 448.62 106.702 452.21 117.916 456.236C140.28 464.263 163.017 472.214 166.416 473.197C168.341 473.753 170.366 474.55 170.916 474.967C171.466 475.385 173.919 476.033 176.366 476.407C178.814 476.782 181.289 477.457 181.866 477.908C182.444 478.358 185.551 479.023 188.771 479.385C191.991 479.746 195.425 480.47 196.402 480.993C197.379 481.515 201.164 482.159 204.814 482.423C208.463 482.687 211.795 483.116 212.218 483.377C215.688 485.522 271.81 487.433 273.23 485.455C273.607 484.93 278.371 484.417 283.816 484.316C289.275 484.215 294 483.673 294.348 483.109C294.701 482.539 297.057 482.281 299.677 482.527C302.259 482.769 305.62 482.452 307.144 481.822C308.669 481.192 310.291 480.762 310.75 480.867C311.581 481.055 319.401 479.181 328.916 476.512C331.666 475.741 334.816 474.885 335.916 474.609C338.966 473.846 350.773 469.568 352 468.782C352.596 468.4 354.621 467.817 356.5 467.488C358.379 467.159 360.343 466.464 360.866 465.945C361.388 465.425 362.986 465 364.416 465C365.846 465 367.456 464.56 367.994 464.022C369.036 462.98 377.376 459.896 386.416 457.211C389.441 456.312 392.058 455.248 392.231 454.845C392.404 454.442 394.204 453.58 396.231 452.93C398.258 452.279 400.591 451.189 401.416 450.508C402.241 449.826 404.085 448.992 405.514 448.653C407.772 448.119 409.31 449.206 417.273 456.967C426.317 465.781 426.47 465.878 429.175 464.486C430.683 463.71 435.966 461.175 440.916 458.853C451.682 453.803 457.351 450.307 462.498 445.545C464.605 443.595 466.798 442 467.372 442C467.946 442 468.416 441.626 468.416 441.168C468.416 440.71 472.513 437.501 477.521 434.037C482.529 430.572 488.587 425.884 490.984 423.619C493.381 421.353 497.451 417.565 500.028 415.199C502.647 412.795 504.317 410.541 503.815 410.089C501.61 408.104 482.34 403 477.051 403C474.997 403 471.976 402.307 470.337 401.459C468.698 400.612 466.971 400.157 466.5 400.448C464.158 401.896 463.646 397.319 463.783 376.158C463.862 363.87 463.65 353.645 463.311 353.435C462.972 353.226 461.122 354.73 459.2 356.777C455.167 361.072 449.508 365.634 444.241 368.836C442.22 370.065 438.004 373.552 434.872 376.585C431.74 379.619 428.48 381.966 427.627 381.8C426.774 381.635 425.01 379.475 423.707 377C421.124 372.092 412.845 362 411.402 362C410.908 362 408.347 363.269 405.71 364.82C403.073 366.371 399.45 368.149 397.659 368.771C395.868 369.392 390.018 372.77 384.659 376.277C373.863 383.342 369.257 385.708 358.916 389.5C355.066 390.912 351.137 392.5 350.185 393.03C344.835 396.007 325.957 401.144 311.916 403.445C310.816 403.625 306.991 404.297 303.416 404.939C291.791 407.025 285.94 407.748 284.653 407.258C283.959 406.993 282.75 407.308 281.967 407.958C280.946 408.805 279.991 408.843 278.585 408.09C277.102 407.297 276.328 407.401 275.399 408.521C273.876 410.355 266.465 410.487 264.053 408.724C262.965 407.928 262.555 406.802 262.964 405.735C263.656 403.933 278.61 393 280.384 393C280.952 393 281.416 392.645 281.416 392.211C281.416 391.777 283.873 389.934 286.875 388.114C289.878 386.294 293.322 383.949 294.528 382.903C295.735 381.856 297.306 381 298.019 381C298.733 381 299.676 380.405 300.116 379.679C300.556 378.952 303.053 377.337 305.666 376.089C308.279 374.842 310.416 373.522 310.416 373.155C310.416 372.788 311.653 371.986 313.166 371.372C321.297 368.073 332.257 364.035 334.675 363.448C336.193 363.08 337.682 362.378 337.984 361.889C338.287 361.4 339.52 360.986 340.725 360.968C341.93 360.951 343.77 360.29 344.813 359.5C345.857 358.71 347.043 358.27 347.45 358.521C347.857 358.772 348.745 358.308 349.425 357.489C350.105 356.67 351.586 356 352.717 356C355.021 356 361.645 353.86 362.416 352.866C362.691 352.512 364.491 351.988 366.416 351.703C371.126 351.005 376.183 349.121 380.416 346.489C382.341 345.292 385.716 343.519 387.916 342.55C390.116 341.581 396.016 338.81 401.027 336.394C406.038 333.977 410.613 332 411.194 332C411.774 332 412.399 331.654 412.583 331.232C412.766 330.809 415.319 328.937 418.256 327.07C421.192 325.204 424.619 322.055 425.87 320.074C427.12 318.092 428.88 315.86 429.78 315.113C430.68 314.366 431.416 313.235 431.416 312.6C431.416 311.965 432.689 308.982 434.246 305.972C435.802 302.963 437.822 297.575 438.735 294C440.587 286.747 441.527 270.95 440.243 268.656C439.786 267.838 438.988 264.544 438.471 261.335C437.277 253.918 434.499 243.786 433.321 242.55C432.823 242.028 432.416 240.99 432.416 240.244C432.416 239.498 431.066 236.167 429.416 232.841C427.766 229.516 426.416 225.996 426.416 225.02C426.416 224.044 425.741 222.685 424.916 222C424.091 221.315 423.416 219.996 423.416 219.069C423.416 218.141 422.755 216.509 421.948 215.441C421.14 214.374 420.465 212.563 420.448 211.417C420.43 210.271 420.117 209.035 419.752 208.67C418.459 207.376 415.416 197.532 415.384 194.538C415.367 192.867 414.692 190.626 413.884 189.559C413.077 188.491 412.416 186.185 412.416 184.435C412.416 182.684 411.713 179.282 410.854 176.876C409.678 173.583 409.272 168.168 409.212 155C409.103 130.949 409.688 124.905 413.131 114.5C414.768 109.55 416.674 103.475 417.365 101C418.056 98.525 419.25 95.306 420.018 93.846C420.787 92.386 421.416 90.109 421.416 88.787C421.416 87.464 422.077 85.509 422.884 84.441C423.692 83.374 424.367 81.957 424.384 81.294C424.402 80.631 425.786 77.764 427.461 74.923C430.233 70.223 430.368 69.604 428.961 68.05C428.111 67.111 427.416 65.815 427.416 65.171C427.416 64.527 426.788 64 426.021 64C425.254 64 423.566 62.807 422.271 61.349C418.782 57.421 409.186 47.805 406.371 45.417C405.021 44.271 402.293 41.571 400.309 39.417C398.325 37.263 393.487 32.42 389.559 28.656C385.63 24.892 382.41 21.517 382.403 21.156C382.376 19.74 363.528 1 362.131 1C361.314 1 359.356 1.672 357.78 2.494C356.205 3.315 354.085 3.99 353.07 3.994C352.055 3.997 350.03 4.657 348.57 5.461C343.735 8.121 333.052 11.89 322.916 14.512C317.416 15.934 312.016 17.495 310.916 17.981C309.816 18.466 307.566 19.077 305.916 19.338C304.266 19.599 297.063 21.177 289.91 22.844C276.47 25.978 260.794 28.352 259.368 27.47C258.92 27.194 258.317 27.351 258.027 27.82C257.285 29.02 250.62 29.139 249.895 27.965C249.509 27.342 248.617 27.357 247.402 28.008C246.053 28.729 244.416 28.609 241.712 27.59C239.624 26.804 235.007 25.866 231.451 25.506C227.895 25.146 224.52 24.561 223.951 24.205C223.382 23.849 222.241 23.449 221.416 23.317C219.532 23.014 202.579 18.529 195.916 16.57C184.157 13.114 180.736 11.816 177.18 9.463C175.11 8.093 173.416 7.222 173.416 7.528C173.416 7.834 171.464 6.94 169.078 5.542C166.692 4.144 164.185 3 163.507 3C162.828 3 161.598 2.325 160.773 1.5C159.948 0.675 158.704 0 158.009 0C157.314 0 152.997 3.6 148.416 8ZM167.144 13.57C169.769 14.902 172.468 15.994 173.143 15.996C173.819 15.998 176.908 17.373 180.01 19.051C183.111 20.728 185.88 21.869 186.163 21.586C186.447 21.302 187.62 21.73 188.77 22.535C189.92 23.341 191.504 24 192.289 24C194.043 24 204.25 28.922 204.994 30.127C205.291 30.607 207.731 31 210.416 31C213.101 31 215.545 31.399 215.846 31.887C217.153 34.001 229.393 35.116 254.416 35.4C267.94 35.554 276.512 35.221 279.606 34.423C282.185 33.757 284.467 33.385 284.677 33.594C284.887 33.804 289.977 32.824 295.987 31.416C312.284 27.6 313.355 27.296 314.839 26.064C315.591 25.44 316.59 25.053 317.061 25.203C317.908 25.473 322.135 24.054 327.916 21.557C334.737 18.611 336.625 18 338.904 18C340.221 18 341.548 17.595 341.854 17.1C342.16 16.606 344.774 15.655 347.663 14.988C350.552 14.321 353.913 13.151 355.131 12.387C359.526 9.634 361.881 10.626 369.835 18.581C374.005 22.75 377.416 26.632 377.416 27.208C377.416 27.784 384.279 35.06 392.666 43.378C408.989 59.564 413.416 64.321 413.416 65.673C413.416 66.142 414.392 66.97 415.584 67.513C419.685 69.38 419.875 71.183 416.698 78.063C415.062 81.604 413.151 86.3 412.45 88.5C411.748 90.7 410.779 92.928 410.295 93.45C409.812 93.973 409.402 95.323 409.384 96.45C409.367 97.578 408.706 99.354 407.916 100.397C407.126 101.441 406.688 102.631 406.941 103.041C407.195 103.452 406.711 105.443 405.866 107.466C405.02 109.49 403.943 113.025 403.471 115.323C402.999 117.62 402.1 121.975 401.473 125C400.054 131.84 399.77 172.968 401.135 173.862C401.67 174.213 402.432 176.75 402.828 179.5C403.992 187.593 404.123 188.243 405.751 194C409.024 205.569 409.646 207.53 410.348 208.5C411.814 210.525 414.546 218.981 414.013 219.843C413.711 220.332 414.353 221.538 415.44 222.521C416.527 223.505 417.416 225.31 417.416 226.533C417.416 227.755 418.106 229.328 418.949 230.028C419.793 230.728 420.305 231.795 420.087 232.4C419.87 233.005 420.937 235.975 422.458 239C425.99 246.02 428.075 252.256 428.888 258.227C429.242 260.826 429.956 263.215 430.474 263.536C430.992 263.856 431.416 269.005 431.416 274.978C431.416 285.453 429.777 295.409 427.132 301C425.074 305.349 419.011 314.43 416.924 316.288C415.82 317.272 413.791 319.104 412.416 320.359C408.641 323.805 390.078 333.312 379.916 337.004C374.966 338.802 367.991 341.601 364.416 343.224C360.841 344.847 356.791 346.627 355.416 347.18C354.041 347.733 351.642 348.818 350.085 349.593C348.528 350.367 346.384 351 345.321 351C344.259 351 342.607 351.395 341.652 351.877C340.697 352.36 338.116 353.297 335.916 353.96C332.045 355.127 329.989 355.953 320.416 360.189C317.941 361.284 315.016 362.559 313.916 363.022C306.11 366.31 303.082 367.656 296.741 370.656C292.794 372.523 289.419 374.407 289.241 374.842C288.859 375.771 277.247 384.77 272.942 387.472C269.015 389.938 268.08 390.733 263.214 395.75C260.946 398.087 258.473 400 257.718 400C255.512 400 251.973 397.291 245.229 390.439C241.757 386.912 238.369 384.02 237.701 384.013C237.032 384.006 234.948 382.65 233.069 381C231.19 379.35 229.326 378 228.928 378C228.53 378 226.811 376.827 225.108 375.394C221.695 372.522 212.37 367.766 206.612 365.96C203.01 364.831 199.173 363.21 189.854 358.881C187.344 357.715 183.857 356.393 182.104 355.942C180.35 355.492 175.991 354.005 172.416 352.638C168.841 351.27 162.766 348.959 158.916 347.502C155.066 346.045 149.666 343.72 146.916 342.335C144.166 340.951 139.891 339.144 137.416 338.32C131.177 336.244 122.733 332.086 121.336 330.403C120.695 329.631 119.62 329 118.947 329C117.102 329 111.416 325.976 111.416 324.994C111.416 324.521 110.622 323.883 109.653 323.575C107.272 322.819 98.416 314.61 98.416 313.159C98.416 312.522 97.741 312 96.916 312C96.091 312 95.416 311.525 95.416 310.944C95.416 310.363 94.154 308.675 92.611 307.194C85.772 300.626 82.221 282.738 84.434 266C86.125 253.205 92.013 231.396 94.625 228.248C96.276 226.259 98.382 220.058 98.401 217.132C98.409 215.829 100.216 211.387 102.416 207.26C104.616 203.133 106.416 199.279 106.416 198.694C106.416 198.11 107.273 195.802 108.319 193.566C109.366 191.33 110.441 188.15 110.708 186.5C110.975 184.85 111.926 181.025 112.821 178C115.71 168.243 116.627 159.835 116.587 143.5C116.565 134.7 116.344 126.375 116.095 125C113.883 112.769 110.788 99.724 109.238 96.097C108.203 93.675 106.907 89.69 106.358 87.241C105.809 84.792 103.798 79.451 101.888 75.372C99.978 71.293 98.422 67.629 98.428 67.228C98.449 66.027 112.548 51.666 117.859 47.436C120.577 45.271 123.995 42.375 125.454 41C130.286 36.445 133.419 34 134.424 34C134.969 34 135.416 33.524 135.416 32.942C135.416 32.361 140.254 26.973 146.166 20.969C158.178 8.772 157.888 8.874 167.144 13.57ZM150.416 27.019C146.291 30.874 139.991 36.894 136.416 40.396C132.841 43.898 128.081 47.898 125.838 49.286C123.594 50.673 120.351 53.314 118.63 55.154C116.909 56.994 113.275 60.896 110.554 63.824L105.608 69.148L108.608 75.824C110.258 79.496 112.014 82.927 112.512 83.45C113.009 83.972 113.416 85.891 113.416 87.714C113.416 89.536 113.84 91.809 114.357 92.764C114.875 93.719 116.022 97.2 116.905 100.5C117.789 103.8 119.157 108.75 119.944 111.5C124.208 126.384 125.979 162.052 122.843 169.89C122.005 171.985 121.201 174.779 121.057 176.099C120.404 182.065 112.588 205.04 109.502 210.064C108.341 211.954 106.914 215.247 106.329 217.383C105.745 219.518 104.15 223.793 102.785 226.883C101.419 229.972 99.908 233.4 99.427 234.5C98.946 235.6 98.32 237.85 98.036 239.5C97.751 241.15 96.54 245.875 95.344 250C91.624 262.834 90.053 276.419 91.363 284.435C92.391 290.725 95.775 298.993 97.666 299.833C98.078 300.017 98.416 300.746 98.416 301.454C98.416 302.163 99.948 303.792 101.821 305.075C103.694 306.359 105.969 308.667 106.878 310.204C107.786 311.742 109.13 313 109.866 313C110.601 313 111.461 313.675 111.778 314.5C112.094 315.325 113.042 316 113.885 316C114.727 316 115.416 316.413 115.416 316.918C115.416 317.424 116.899 318.753 118.711 319.873C120.523 320.993 123.067 322.83 124.364 323.955C125.661 325.08 127.334 326 128.083 326C128.831 326 130.225 326.43 131.18 326.956C132.135 327.482 137.191 329.536 142.416 331.519C147.641 333.502 152.816 335.507 153.916 335.974C155.016 336.441 159.291 337.849 163.416 339.103C167.541 340.357 171.591 341.892 172.416 342.514C173.241 343.136 175.941 344.25 178.416 344.989C180.891 345.729 184.319 347.159 186.034 348.167C187.749 349.175 190.281 350 191.662 350C193.042 350 194.692 350.628 195.329 351.395C195.966 352.163 198.102 353.094 200.075 353.464C202.048 353.834 204.394 354.506 205.289 354.958C206.184 355.409 208.716 356.569 210.916 357.536C214.65 359.177 216.719 360.17 220.416 362.092C221.241 362.521 224.616 364.122 227.916 365.649C231.216 367.177 234.066 368.781 234.249 369.213C234.433 369.646 235.128 370 235.794 370C237.973 370 248.49 380.739 252.689 387.25C255.897 392.225 257.584 391.379 268.416 379.365C270.891 376.62 274.491 373.206 276.416 371.778C280.437 368.795 297.696 359.627 301.416 358.497C302.791 358.079 305.041 356.991 306.416 356.079C309.627 353.948 318.969 350.221 323.187 349.388C324.986 349.032 326.665 348.407 326.917 347.998C327.928 346.363 338.621 342.011 351.416 338.027C358.841 335.715 365.95 333.413 367.213 332.911C368.476 332.41 370.367 332 371.413 332C372.46 332 373.676 331.437 374.116 330.748C374.556 330.06 376.041 329.015 377.416 328.426C378.791 327.837 382.398 326.15 385.432 324.677C388.466 323.205 391.551 322 392.288 322C393.025 322 394.513 320.875 395.595 319.5C396.676 318.125 398.091 316.989 398.739 316.975C400.565 316.936 407.85 309.659 413.395 302.334C417.551 296.844 418.416 294.987 418.416 291.551C418.416 289.268 418.874 286.942 419.434 286.382C420.858 284.958 420.953 261.176 419.549 257.685C418.926 256.137 418.418 253.662 418.421 252.185C418.427 249.316 412.903 234.499 410.895 232C410.233 231.175 409.396 228.925 409.036 227C408.676 225.075 407.292 221.25 405.961 218.5C401.831 209.966 398.416 200.969 398.416 198.625C398.416 197.392 397.755 195.509 396.948 194.441C396.113 193.338 395.466 190.286 395.448 187.372C395.43 184.552 394.748 180.645 393.931 178.691C392.965 176.378 392.397 171.308 392.303 164.171C392.225 158.139 391.826 152.663 391.417 152.002C391.008 151.34 391.039 149.157 391.485 147.15C391.932 145.142 392.399 139 392.524 133.5C392.649 128 393.306 121.7 393.984 119.5C394.663 117.3 395.49 113.777 395.824 111.671C396.157 109.565 396.825 107.09 397.307 106.171C397.789 105.252 398.512 102.475 398.913 100C399.314 97.525 399.959 95.05 400.346 94.5C400.734 93.95 401.901 90.8 402.941 87.5C403.981 84.2 405.379 80.825 406.046 80C406.714 79.175 407.57 77.258 407.949 75.741C408.328 74.223 409.038 72.734 409.527 72.432C411.245 71.369 410.388 68.42 407.649 65.973C406.127 64.613 402.99 61.25 400.679 58.5C398.368 55.75 393.129 51.025 389.036 48C384.944 44.975 381.788 42.305 382.023 42.066C382.586 41.495 376.278 35 375.162 35C374.688 35 372.219 32.89 369.677 30.31C367.134 27.731 363.61 24.353 361.847 22.805L358.641 19.99L352.778 22.864C342.299 28.001 338.16 29.617 329.416 31.988C326.941 32.659 323.882 33.611 322.619 34.104C321.356 34.597 318.738 35 316.803 35C314.868 35 312.302 35.533 311.1 36.184C308.634 37.521 302.538 38.79 294.416 39.657C291.391 39.98 288.446 40.618 287.871 41.075C287.297 41.531 282.912 42.122 278.128 42.389C273.344 42.655 268.968 43.159 268.403 43.508C266.832 44.479 236.313 44.153 235.037 43.152C234.019 42.353 231.055 41.877 217.426 40.325C214.957 40.044 212.174 39.406 211.242 38.907C210.31 38.408 208.537 38 207.303 38C206.068 38 203.676 37.567 201.987 37.038C200.298 36.509 193.662 34.458 187.24 32.48C180.818 30.502 175.026 28.235 174.368 27.442C173.71 26.649 172.326 26 171.294 26C170.261 26 169.416 25.534 169.416 24.964C169.416 23.919 161.245 19.997 159.083 20.004C158.441 20.006 154.541 23.163 150.416 27.019ZM166.916 32C170.142 33.65 173.788 35 175.018 35C176.248 35 178.528 35.661 180.085 36.468C184.801 38.914 195.668 42.794 199.916 43.549C202.116 43.941 204.508 44.731 205.231 45.307C207.124 46.812 215.494 47.917 235.416 49.292C259.163 50.931 288.004 49.352 305.681 45.445C320.603 42.148 331.355 39.133 332.866 37.823C333.388 37.37 335.274 37 337.057 37C338.84 37 340.576 36.55 340.916 36C341.256 35.45 342.436 35 343.539 35C344.642 35 348.073 33.843 351.164 32.429C357.33 29.609 358.831 29.875 364.053 34.715C365.41 35.972 366.761 37 367.057 37C368.783 37 401.416 69.761 401.416 71.495C401.416 72.32 400.066 75.852 398.416 79.344C396.766 82.836 395.416 86.199 395.416 86.816C395.416 87.433 394.279 91.422 392.889 95.679C390.537 102.883 388.085 112.42 386.764 119.5C385.914 124.055 385.496 131.068 385.128 146.937C384.927 155.635 384.386 161.51 383.767 161.716C383.201 161.905 382.02 159.908 381.141 157.28C377.715 147.033 377.061 145.34 374.686 140.586C373.336 137.883 371.598 135.039 370.824 134.265C370.049 133.491 369.416 132.214 369.416 131.429C369.416 130.643 368.966 130 368.416 130C367.866 130 367.416 129.086 367.416 127.969C367.416 126.851 366.741 125.678 365.916 125.362C365.091 125.045 364.416 124.323 364.416 123.758C364.416 123.192 363.404 121.721 362.166 120.489C360.928 119.258 358.791 116.625 357.416 114.639C356.041 112.653 353.227 109.889 351.163 108.498C349.098 107.106 345.723 104.175 343.663 101.985C341.602 99.795 339.564 98.003 339.134 98.002C338.097 97.999 324.007 88.763 323.596 87.816C322.938 86.301 307.961 79.904 301.812 78.512C300.769 78.276 297.441 77.346 294.416 76.445C283.327 73.142 254.48 69.36 251.704 70.846C250.705 71.38 248.769 71.84 247.402 71.866C243.53 71.942 235.18 72.807 232.416 73.42C231.041 73.724 227.451 74.468 224.438 75.073C221.426 75.678 218.101 76.633 217.05 77.196C216 77.758 213.74 78.431 212.028 78.692C210.316 78.952 208.488 79.578 207.966 80.083C207.443 80.587 206.294 81 205.412 81C203.203 81 193.416 85.968 193.416 87.089C193.416 87.59 192.989 88 192.466 88C191.287 88 182.039 94.126 181.583 95.209C181.399 95.644 180.724 96.007 180.083 96.016C179.441 96.025 177.393 97.375 175.53 99.016C173.668 100.657 171.868 102.007 171.53 102.015C170.706 102.035 160.896 111.455 155.9 117.023C153.691 119.485 150.991 123.3 149.9 125.5C148.809 127.7 147.354 129.86 146.666 130.3C145.979 130.74 145.416 131.704 145.416 132.444C145.416 133.183 144.066 135.234 142.416 137C140.766 138.766 139.416 140.858 139.416 141.648C139.416 142.437 138.516 144.05 137.416 145.23C136.316 146.411 135.416 148.117 135.416 149.022C135.416 149.927 135.078 151.004 134.666 151.417C134.254 151.829 133.879 152.467 133.834 152.833C133.606 154.705 132.13 159.047 131.826 158.743C131.634 158.551 131.208 152.118 130.879 144.447C130.551 136.776 130.105 128.925 129.887 127C128.919 118.426 127.321 109.691 126.409 107.987C125.863 106.966 125.416 104.955 125.416 103.516C125.416 102.078 124.737 99.588 123.908 97.984C123.078 96.379 122.3 93.873 122.18 92.414C122.059 90.956 121.388 89.543 120.688 89.274C119.988 89.006 119.416 87.569 119.416 86.081C119.416 84.593 118.503 81.485 117.386 79.174C116.27 76.863 114.947 73.896 114.446 72.58C113.487 70.056 112.879 70.784 128.282 56C130.288 54.075 133.473 51.375 135.359 50C137.246 48.625 140.618 45.573 142.853 43.217C145.088 40.862 148.716 37.712 150.916 36.217C153.116 34.723 155.736 32.487 156.739 31.25C159.091 28.346 159.887 28.405 166.916 32ZM280.416 83.645C282.341 83.987 285.041 84.82 286.416 85.496C287.791 86.172 289.478 86.525 290.164 86.28C290.851 86.035 292.98 86.803 294.896 87.988C296.812 89.172 298.838 89.857 299.398 89.511C299.958 89.165 300.42 89.246 300.424 89.691C300.432 90.536 305.136 93 306.742 93C310.057 93 327.787 103.584 335.552 110.199C338.651 112.84 341.689 115 342.302 115C342.915 115 343.416 115.393 343.416 115.874C343.416 116.355 345.346 118.619 347.705 120.905C350.064 123.192 352.872 126.736 353.945 128.781C355.018 130.826 356.463 132.86 357.156 133.3C357.849 133.74 358.416 134.557 358.416 135.116C358.416 135.676 359.541 137.608 360.916 139.411C362.291 141.214 363.416 143.067 363.416 143.53C363.416 143.993 364.255 145.3 365.279 146.436C367.254 148.623 372.416 161.436 372.416 164.149C372.416 165.032 373.042 166.275 373.807 166.91C374.572 167.545 375.548 169.512 375.975 171.282C377.113 175.996 376.94 228.726 375.769 234C374.771 238.496 368.918 253.832 366.037 259.5C365.199 261.15 363.591 263.162 362.464 263.971C361.338 264.78 360.411 266.13 360.405 266.971C360.392 268.777 353.375 279.034 348.409 284.505C338.246 295.702 330.383 301.882 317.916 308.472C312.966 311.088 308.766 313.627 308.583 314.114C308.399 314.601 307.596 315 306.797 315C305.999 315 304.349 315.644 303.131 316.431C300.781 317.949 292.7 320.789 283.094 323.472C278.449 324.769 264.845 326.081 254.416 326.237C249.38 326.312 235.126 324.611 230.762 323.414C227.927 322.636 224.813 322 223.841 322C222.869 322 221.363 321.37 220.495 320.599C219.626 319.829 217.341 318.731 215.416 318.16C208.044 315.972 204.344 314.284 203.056 312.522C202.321 311.517 201.248 310.986 200.672 311.341C200.097 311.697 199.368 311.316 199.052 310.494C198.737 309.672 197.845 309 197.07 309C196.295 309 195.162 308.399 194.553 307.665C193.943 306.93 191.638 305.733 189.43 305.005C187.222 304.276 185.416 303.362 185.416 302.973C185.416 302.584 183.729 301.145 181.666 299.776C176.292 296.207 166.081 285.982 164.665 282.75C164.001 281.238 162.887 279.992 162.187 279.981C161.488 279.971 159.566 277.729 157.916 275C156.266 272.271 154.619 270.029 154.255 270.019C153.892 270.008 152.624 268.087 151.438 265.75C150.252 263.413 148.187 259.517 146.849 257.093C145.511 254.669 144.416 251.946 144.416 251.043C144.416 250.139 144.04 248.972 143.581 248.45C141.011 245.524 136.883 228.816 135.564 216C134.678 207.392 134.738 201.766 135.84 190C136.931 178.352 137.077 177.548 138.832 173.5C139.786 171.3 141.706 165.9 143.099 161.5C144.492 157.1 145.994 153.05 146.438 152.5C146.881 151.95 148.901 148.238 150.927 144.25C152.952 140.262 155.016 137 155.513 137C156.009 137 156.416 136.545 156.416 135.99C156.416 132.872 173.612 113 176.31 113C176.801 113 177.452 112.349 177.758 111.552C178.063 110.756 179.662 109.407 181.311 108.554C182.959 107.702 185.505 105.895 186.968 104.54C189.382 102.303 199.945 96.825 215.909 89.533C219.206 88.027 223.256 86.656 224.909 86.486C226.563 86.316 229.266 85.706 230.916 85.13C237.64 82.786 243.719 82.262 259.916 82.634C269.266 82.848 278.491 83.303 280.416 83.645ZM234.916 93.015C226.659 94.823 213.345 98.931 209.884 100.739C208.802 101.304 206.566 102.381 204.916 103.132C203.266 103.883 201.691 104.761 201.416 105.085C201.141 105.408 198.666 106.959 195.916 108.531C189.755 112.053 184.991 115.498 180.416 119.739C178.491 121.523 176.578 122.987 176.166 122.991C175.754 122.996 175.416 123.503 175.416 124.118C175.416 124.733 174.178 126.691 172.666 128.468C162.871 139.982 157.41 147.951 155.514 153.5C154.762 155.7 153.382 159.3 152.447 161.5C148.496 170.796 145.478 181.258 144.657 188.5C143.385 199.727 144.221 221.58 146.215 229.2C146.747 231.235 147.013 233.069 146.806 233.276C146.599 233.483 147.327 235.509 148.423 237.778C149.519 240.047 150.416 242.574 150.416 243.393C150.416 244.212 150.866 245.16 151.416 245.5C151.966 245.84 152.416 247.666 152.416 249.559C152.416 251.452 152.876 253 153.437 253C153.999 253 155.009 254.238 155.68 255.75C156.352 257.262 157.692 259.372 158.659 260.439C159.625 261.505 160.416 262.898 160.416 263.534C160.416 264.17 161.316 265.505 162.416 266.5C163.516 267.495 164.416 268.818 164.416 269.438C164.416 270.754 187.51 295 188.763 295C189.227 295 191.017 296.012 192.741 297.25C196.173 299.714 199.098 301.531 201.416 302.638C202.241 303.032 203.182 303.749 203.508 304.231C203.834 304.713 206.534 305.721 209.508 306.471C217.06 308.377 222.491 310.503 223.348 311.89C224.108 313.12 234.346 315.139 235.69 314.323C236.115 314.064 238.365 314.564 240.69 315.434C246.201 317.497 251.485 317.886 259.446 316.814C263.005 316.335 269.315 315.788 273.468 315.599C277.87 315.399 282.342 314.573 284.188 313.618C285.93 312.717 287.739 312.097 288.208 312.24C288.677 312.383 291.729 311.303 294.989 309.84C298.249 308.377 304.854 305.493 309.666 303.432C314.479 301.37 318.416 299.305 318.416 298.842C318.416 298.379 318.898 298 319.487 298C321.446 298 333.304 288.928 333.932 286.949C334.272 285.877 335.195 285 335.983 285C336.771 285 337.416 284.588 337.416 284.085C337.416 283.107 339.16 280.955 346.639 272.708C349.237 269.844 351.374 267.162 351.389 266.75C351.404 266.337 352.204 265.207 353.166 264.238C355.364 262.024 360.416 252.321 360.416 250.312C360.416 249.485 361.013 247.614 361.742 246.154C362.472 244.694 363.822 242.001 364.742 240.169C365.663 238.337 366.416 235.502 366.416 233.869C366.416 232.237 367.147 229.486 368.041 227.757C369.345 225.237 369.713 220.876 369.9 205.765C370.117 188.117 369.863 184.89 367.495 175.25C366.361 170.635 363.53 162.869 362.486 161.508C362.06 160.954 360.866 158.025 359.831 155C357.076 146.943 357.01 146.842 343.562 130.147C337.24 122.299 326.606 112 324.824 112C324.134 112 322.297 110.973 320.743 109.719C319.188 108.464 316.229 106.562 314.166 105.491C312.104 104.421 310.416 103.123 310.416 102.606C310.416 102.089 310.128 101.955 309.776 102.307C309.424 102.659 307.736 102.22 306.026 101.331C300.147 98.275 299.492 98.036 295.21 97.382C292.848 97.022 290.395 96.318 289.759 95.818C288.574 94.887 282.925 93.719 271.416 92.023C261.479 90.559 243.957 91.035 234.916 93.015ZM280.377 100.48C281.994 101.316 284.352 101.998 285.616 101.995C288.261 101.989 296.65 104.594 300.615 106.652C302.099 107.422 305.034 108.659 307.136 109.401C315.357 112.302 329.318 123.501 335.916 132.489C337.016 133.987 339.182 136.39 340.73 137.829C344.593 141.419 351.198 151.27 352.035 154.688C352.414 156.235 352.992 157.725 353.32 158C353.648 158.275 354.749 160.975 355.768 164C356.787 167.025 358.183 170.85 358.87 172.5C359.558 174.15 360.685 177.525 361.375 180C362.897 185.454 363.605 216.967 362.325 222.25C361.825 224.313 360.958 227.913 360.398 230.25C359.33 234.71 358.366 237.14 355.284 243.136C354.257 245.136 353.416 247.462 353.416 248.305C353.416 250.061 350.29 256.334 349.166 256.833C348.753 257.017 348.416 258.029 348.416 259.083C348.416 260.137 348.042 261 347.586 261C347.129 261 345.38 262.913 343.699 265.25C336.652 275.051 315.101 295 311.56 295C311.145 295 309.273 296.13 307.402 297.511C305.53 298.891 302.63 300.431 300.957 300.931C299.285 301.432 295.447 302.777 292.43 303.921C289.413 305.064 285.55 306 283.847 306C282.143 306 280.448 306.301 280.08 306.669C279.712 307.037 277.725 307.482 275.663 307.658C273.602 307.834 269.891 308.284 267.416 308.656C261.435 309.558 247.334 309.675 246.81 308.828C246.582 308.459 243.362 307.876 239.655 307.534C228.067 306.462 214.903 302.341 205.416 296.816C204.591 296.335 203.129 295.678 202.166 295.354C201.203 295.031 200.416 294.358 200.416 293.859C200.416 293.359 199.386 292.559 198.127 292.08C194.303 290.626 182.768 280.619 177.725 274.379C175.111 271.146 172.622 268.35 172.194 268.167C171.766 267.983 171.406 267.308 171.393 266.667C171.38 266.025 169.857 263.821 168.009 261.77C163.966 257.283 155.125 237.808 155.061 233.25C155.036 231.462 154.629 230 154.157 230C153.685 230 153.522 229.638 153.796 229.195C154.069 228.752 153.856 226.614 153.321 224.445C152.786 222.275 152.116 218.25 151.83 215.5C151.545 212.75 151.173 210.05 151.004 209.5C150.673 208.421 152.042 189.645 152.853 184.146C153.409 180.374 154.164 177.446 155.34 174.5C155.78 173.4 156.707 170.7 157.402 168.5C160.243 159.506 166.1 147.977 170.3 143.114C172.016 141.126 175.04 137.475 177.02 135C182.721 127.875 191.551 119 192.941 119C193.275 119 195.02 117.879 196.816 116.508C201.659 112.815 217.274 105 219.812 105C221.024 105 222.443 104.6 222.966 104.111C224.652 102.532 235.557 99.862 243.847 98.998C255.712 97.76 276.77 98.615 280.377 100.48ZM216.035 136.524C215.144 137.414 214.416 138.898 214.415 139.821C214.397 170.251 213.444 214.369 212.791 215.015C211.464 216.326 193.49 216.474 192.201 215.185C191.167 214.151 191.091 203.521 191.916 175C192.21 164.841 191.577 163 187.794 163C184.993 163 185.208 161.786 184.788 180C184.074 210.967 183.902 213.914 182.738 215.079C181.964 215.852 176.978 216.299 168.238 216.378L154.916 216.5L154.588 219.372C154.407 220.951 154.659 222.643 155.147 223.131C155.634 223.618 162.051 224.245 169.405 224.522C176.759 224.8 183.033 225.284 183.346 225.598C183.66 225.912 183.916 229.79 183.916 234.217C183.916 240.792 184.236 242.469 185.666 243.378C186.944 244.19 187.888 244.192 189.166 243.385C190.596 242.482 190.916 240.81 190.916 234.225C190.916 229.794 191.146 225.939 191.426 225.658C192.153 224.929 197.757 224.612 206.217 224.82L213.518 225L212.996 235.62C212.449 246.748 213.185 250 216.251 250C219.793 250 220.416 247.934 220.416 236.193C220.416 226.428 220.633 224.869 221.927 225.366C224.455 226.336 229.424 224.853 230.523 222.801C232.052 219.943 229.194 216 225.593 216C224.066 216 222.312 215.496 221.697 214.881C220.892 214.076 220.728 203.198 221.113 176.131C221.634 139.438 221.597 138.455 219.65 136.703C217.81 135.046 217.527 135.032 216.035 136.524ZM302.916 150.657C301.816 150.952 300.488 151.6 299.966 152.097C299.444 152.594 297.487 153 295.617 153C292.391 153 288.168 154.451 282.262 157.59C280.802 158.365 278.777 159.015 277.762 159.033C275.344 159.077 271.416 162.393 271.416 164.391C271.416 166.354 276.159 167.642 278.35 166.273C279.247 165.713 281.424 164.937 283.187 164.55C284.95 164.163 286.65 163.431 286.964 162.923C287.277 162.415 288.662 162 290.041 162C291.419 162 293.422 161.532 294.491 160.96C296.401 159.938 296.424 160.424 295.859 189.21C295.543 205.319 295.295 219.175 295.308 220C295.321 220.825 295.086 223.915 294.787 226.867L294.243 232.234L290.831 231.68C286.85 231.034 284.54 233.564 286.705 236.198C289.48 239.576 308.213 242.56 317.379 241.083C320.823 240.529 323.928 240.128 324.278 240.192C326.033 240.515 335.533 238.62 336.007 237.853C336.307 237.367 338.07 236.336 339.924 235.561C343.317 234.143 352.485 226.368 352.196 225.153C352.11 224.794 352.394 222.562 352.826 220.193C353.354 217.297 353.188 214.839 352.318 212.693C351.053 209.568 346.75 205.004 345.067 205.001C344.6 205.001 342.8 204.353 341.067 203.562C333.627 200.168 329.7 198.698 326.416 198.076L322.916 197.414L327.388 194.457C334.126 190.002 345.226 178.353 346.225 174.689C347.817 168.847 346.562 164.382 342.058 159.866C333.514 151.3 331.694 150.593 317.539 150.343C310.596 150.22 304.016 150.361 302.916 150.657ZM325.287 158.931C326.385 159.519 328.11 160 329.118 160C332.062 160 338.01 164.605 339.4 167.961C340.498 170.611 340.447 171.308 339.048 172.854C338.15 173.846 337.416 175.171 337.416 175.799C337.416 178.056 322.227 189.976 318.009 191.029C315.758 191.592 312.438 192.715 310.632 193.526C303.247 196.841 302.653 195.436 303.021 175.516C303.28 161.491 303.43 160.473 305.357 159.613C306.489 159.108 307.416 158.426 307.415 158.097C307.413 157.07 323.184 157.805 325.287 158.931ZM261.38 166.067C260.772 167.203 260.368 169.566 260.484 171.317C260.773 175.713 259.595 178 257.041 178C255.853 178 253.189 179.149 251.121 180.554C247.161 183.245 246.748 185.219 249.211 189.684C250.762 192.497 250.728 193 248.987 193C246.245 193 240.416 199.546 240.423 202.618C240.433 206.958 245.454 210 252.605 210C259.767 210 260.867 211.237 259.985 218.298C259.367 223.238 259.493 223.703 261.773 224.923C265.558 226.949 266.416 225.582 266.416 217.525V210.168L270.416 207C275.039 203.339 275.436 201.422 271.906 199.814C269.755 198.833 269.049 198.996 266.966 200.953C262.577 205.076 250.366 205.694 249.622 201.831C249.284 200.075 256.355 197 260.732 197C265.209 197 270.416 194.371 270.416 192.11C270.416 189.583 269.487 189.034 264.488 188.611C260.18 188.245 257.05 186.401 258.035 184.807C258.371 184.264 262.633 183.967 267.774 184.13L276.916 184.419V181.464C276.916 178.793 276.506 178.422 272.648 177.609C268.088 176.647 266.595 174.249 267.766 169.771C268.383 167.409 266.038 164 263.796 164C263.076 164 261.989 164.93 261.38 166.067ZM123.72 203.256C123.163 212.926 126.247 237.585 128.378 240.5C128.78 241.05 130.171 245.325 131.468 250C132.765 254.675 134.859 259.772 136.121 261.327C137.383 262.881 138.416 264.94 138.416 265.902C138.416 266.864 140.441 270.258 142.916 273.446C145.391 276.633 147.416 279.767 147.416 280.41C147.416 283.098 163.669 300.037 171.07 305.062C173.735 306.871 177.139 309.604 178.635 311.134C180.13 312.664 182.776 314.723 184.515 315.708C186.254 316.694 188.406 317.95 189.297 318.5C195.011 322.029 202.673 326.216 203.701 326.372C204.369 326.473 205.409 326.865 206.011 327.242C206.614 327.619 208.968 328.225 211.243 328.588C213.517 328.952 215.892 329.868 216.52 330.625C217.147 331.381 219.126 332 220.916 332C222.707 332 225.689 332.633 227.544 333.407C233.768 336.003 267.427 337.16 276.416 335.087C278.891 334.516 282.372 334.038 284.151 334.024C288.015 333.995 303.408 329.007 312.236 324.923C315.712 323.316 318.758 322 319.006 322C319.253 322 321.227 320.882 323.393 319.515C325.558 318.148 328.024 317.296 328.873 317.622C329.807 317.98 330.416 317.666 330.416 316.825C330.416 315.116 340.069 306 341.88 306C344.08 306 362.86 286.765 364.824 282.5C365.837 280.3 367.734 277.068 369.041 275.317C370.347 273.566 371.416 271.86 371.416 271.525C371.416 271.19 372.316 269.95 373.416 268.77C374.516 267.589 375.416 265.845 375.416 264.895C375.416 263.944 375.775 263.017 376.214 262.833C377.125 262.453 382.428 248.199 382.421 246.151C382.418 245.409 383.056 243.384 383.838 241.651C387.488 233.559 389.805 217.923 389.454 203.75C389.368 200.302 389.733 198 390.364 198C390.942 198 391.416 199.098 391.416 200.441C391.416 201.784 391.866 203.16 392.416 203.5C392.966 203.84 393.419 205.104 393.423 206.309C393.426 207.514 394.323 209.85 395.416 211.5C396.509 213.15 397.406 215.368 397.409 216.429C397.42 219.625 399.406 225.086 403.434 233C408.28 242.52 411.416 251.857 411.416 256.768C411.416 258.876 411.91 261.094 412.514 261.698C414.462 263.646 414.268 277.864 412.191 285.5C411.143 289.35 409.866 292.928 409.351 293.45C408.837 293.973 408.416 295.22 408.416 296.222C408.416 298.125 400.851 307 399.229 307C398.716 307 396.411 308.555 394.106 310.457C391.802 312.358 387.216 315.35 383.916 317.107C369.687 324.68 367.483 325.734 366.963 325.214C366.436 324.687 364.009 325.638 358.262 328.622C356.802 329.38 354.691 330 353.571 330C352.451 330 351.27 330.426 350.948 330.948C350.626 331.469 346.437 333.092 341.639 334.553C336.841 336.015 332.016 337.621 330.916 338.121C329.816 338.621 325.091 340.373 320.416 342.015C315.741 343.657 310.697 345.901 309.206 347C307.716 348.1 306.202 349 305.841 349C301.683 349 265.831 369.989 264.583 373.155C264.399 373.62 263.377 374 262.311 374C261.214 374 259.879 375.085 259.234 376.5C258.608 377.875 257.729 379 257.282 379C256.835 379 254.521 377.052 252.14 374.672C247.816 370.348 237.03 362.532 233.686 361.301C232.712 360.942 229.167 358.928 225.808 356.824C222.449 354.721 218.987 353 218.115 353C217.243 353 214.978 352.084 213.08 350.964C211.183 349.845 209.22 349.057 208.719 349.214C208.218 349.371 206.257 348.757 204.362 347.848C202.467 346.94 198.846 345.216 196.316 344.018C191.739 341.851 162.183 331.433 157.416 330.306C156.041 329.981 153.717 328.876 152.251 327.85C150.785 326.824 147.528 325.703 145.012 325.358C142.496 325.013 139.928 324.117 139.304 323.366C138.681 322.615 137.619 322 136.944 322C136.268 322 133.961 320.736 131.816 319.191C129.671 317.646 127.159 316.097 126.234 315.748C124.026 314.917 110.264 304.727 108.535 302.644C107.795 301.752 106.721 301.312 106.148 301.666C105.576 302.019 105.397 301.84 105.75 301.268C106.104 300.695 105.663 299.62 104.769 298.878C103.875 298.136 102.067 295.823 100.751 293.739C98.521 290.206 98.357 288.99 98.351 275.869C98.348 268.126 98.771 261.275 99.291 260.645C99.811 260.015 100.547 257.7 100.925 255.5C102.077 248.798 104.009 242.937 108.333 233.02C110.606 227.806 112.739 221.834 113.072 219.748C113.406 217.662 114.07 215.714 114.547 215.419C115.025 215.124 115.416 214.19 115.416 213.345C115.416 212.5 116.231 210.614 117.227 209.154C118.223 207.694 119.883 203.938 120.915 200.807C121.947 197.676 123.095 195.302 123.466 195.531C123.837 195.76 123.952 199.237 123.72 203.256ZM322.916 205.529C325.116 206.321 328.266 206.979 329.916 206.991C331.566 207.003 334.205 207.685 335.78 208.506C337.356 209.328 339.423 210 340.375 210C346.966 210 347.166 224.387 340.608 226.706C339.677 227.035 338.186 227.928 337.293 228.692C333.493 231.942 324.861 234.135 313.666 234.695C304.517 235.153 302.403 235.001 302.348 233.879C302.226 231.429 302.555 216.62 302.822 212.5C302.965 210.3 302.722 207.772 302.284 206.881C301.845 205.991 301.771 204.979 302.118 204.631C303.326 203.423 318.942 204.097 322.916 205.529ZM56.305 368.428C64.144 374.864 72.416 382.816 72.416 383.917C72.416 384.347 70.953 386.628 69.166 388.986C67.379 391.343 65.163 394.4 64.243 395.779C63.323 397.158 62.186 398.56 61.717 398.893C60.603 399.686 54.259 407.821 52.705 410.451C50.268 414.575 50.124 415.303 51.352 417.269C52.041 418.372 53.396 420.675 54.363 422.387C55.331 424.099 57.448 427.525 59.068 430C63.689 437.058 68.709 448.321 68.232 450.559C67.792 452.621 59.208 448.212 49.416 440.897C42.866 436.003 33.633 429.635 28.54 426.5C26.362 425.159 13.504 411.929 12.363 409.855C11.127 407.609 12.897 406.391 18.416 405.69C20.891 405.376 25.841 404.474 29.416 403.687C32.991 402.9 38.052 401.946 40.663 401.567C43.573 401.145 45.753 400.224 46.294 399.189C46.78 398.26 47.244 393.45 47.326 388.5C47.408 383.55 47.53 376.125 47.597 372C47.718 364.583 47.985 363 49.114 363C49.433 363 52.668 365.443 56.305 368.428ZM464.916 406.243C468.766 407.275 474.166 408.469 476.916 408.896C479.666 409.322 483.041 410.164 484.416 410.766C485.791 411.369 488.153 412.126 489.666 412.45C491.179 412.773 492.416 413.441 492.416 413.934C492.416 415.499 481.143 426.021 474.916 430.269C471.616 432.52 468.766 434.73 468.583 435.181C468.399 435.631 467.627 436 466.867 436C466.107 436 464.104 437.35 462.416 439C460.728 440.65 459.05 442 458.686 442C458.323 442 456.876 443.094 455.471 444.432C454.066 445.77 450.226 448.275 446.939 449.998C443.651 451.722 440.499 453.516 439.933 453.986C438.497 455.177 433.416 456.368 433.416 455.513C433.416 455.125 434.023 453.614 434.764 452.154C435.506 450.694 436.936 447.7 437.944 445.5C440.549 439.81 445.62 431.642 447.132 430.7C447.838 430.26 448.416 429.248 448.416 428.45C448.416 427.653 448.821 427 449.315 427C449.81 427 451.142 425.219 452.277 423.042L454.34 419.085L448.128 410.078C444.711 405.125 439.569 397.917 436.7 394.061L431.483 387.05L435.858 384.04C438.264 382.385 441.98 379.248 444.115 377.069C446.251 374.89 450.005 371.519 452.457 369.577L456.916 366.047L457.416 385.206L457.916 404.365L464.916 406.243ZM101.613 369.308C108.031 372.75 114.872 377.185 115.249 378.149C115.433 378.617 116.061 379 116.646 379C117.231 379 120.082 380.575 122.982 382.5C125.882 384.425 128.695 386 129.234 386C129.772 386 132.779 387.35 135.916 389C139.053 390.65 142.383 392 143.318 392C144.252 392 145.445 392.429 145.968 392.952C147.365 394.349 163.187 400.05 168.416 401.04C174.508 402.194 192.877 407.254 203.397 410.675C205.861 411.477 210.811 412.557 214.397 413.075C217.982 413.593 222.041 414.212 223.416 414.45C226.152 414.925 238.076 415.732 254.416 416.549C265.816 417.119 287.8 415.564 293.416 413.791C295.341 413.183 298.266 412.563 299.916 412.414C304.767 411.975 317.674 409.028 318.841 408.092C319.432 407.619 321.491 406.902 323.416 406.5C325.341 406.098 327.366 405.428 327.916 405.01C328.874 404.283 331.613 403.633 338.666 402.459C342.832 401.766 349.624 399.834 350.916 398.975C351.466 398.609 354.166 397.701 356.916 396.955C359.666 396.21 363.716 394.571 365.916 393.312C368.116 392.054 370.704 391.019 371.666 391.012C372.628 391.005 373.416 390.55 373.416 390C373.416 389.45 374.055 389 374.835 389C376.146 389 382.267 386.147 383.415 385C383.691 384.725 385.941 383.413 388.416 382.083C392.94 379.654 401.484 374.138 402.416 373.046C403.305 372.004 408.459 370 410.252 370C411.309 370 413.338 372.261 415.415 375.75C418.667 381.215 431.215 398.254 435.098 402.478C437.871 405.494 441.697 411.111 443.872 415.36L445.828 419.181L443.372 421.127C438.112 425.295 432.765 428.699 429.416 430.013C427.491 430.768 425.691 431.637 425.416 431.943C425.141 432.249 422.329 433.793 419.166 435.373C416.004 436.953 413.416 438.581 413.416 438.992C413.416 439.402 411.864 439.99 409.968 440.298C408.071 440.606 404.817 442.015 402.736 443.429C400.655 444.843 398.381 446 397.684 446C396.987 446 396.416 446.42 396.416 446.933C396.416 447.446 395.404 448.167 394.166 448.536C392.928 448.905 389.216 450.336 385.916 451.715C382.616 453.095 379.016 454.563 377.916 454.978C376.816 455.393 374.789 456.26 373.411 456.904C370.81 458.121 353.534 463.506 347.416 465.008C342.338 466.254 335.668 468.183 321.166 472.598C318.279 473.478 314.791 474.282 313.416 474.386C312.041 474.49 308.942 475.154 306.528 475.863C294.364 479.435 254.696 481.718 233.916 480.042C203.812 477.614 202.576 477.392 176.916 469.777C171.416 468.144 165.566 466.452 163.916 466.015C162.266 465.579 158.666 464.463 155.916 463.536C153.166 462.608 148.441 461.262 145.416 460.543C139.655 459.175 134.75 457.312 127.71 453.818C125.397 452.67 122.697 451.654 121.71 451.56C120.723 451.466 118.791 450.888 117.416 450.276C116.041 449.664 114.241 448.904 113.416 448.588C112.591 448.271 111.032 447.447 109.952 446.756C102.583 442.044 95.034 437.702 90.364 435.492C87.367 434.074 84.241 432.528 83.416 432.058C82.591 431.587 79.547 430.05 76.652 428.642C68.424 424.64 58.416 417.105 58.416 414.912C58.416 413.861 58.817 413 59.308 413C59.798 413 60.472 411.913 60.806 410.584C61.139 409.255 63.3 406.217 65.608 403.834C71.071 398.193 79.339 388.426 82.4 384C83.731 382.075 85.092 380.275 85.425 380C85.757 379.725 86.576 378.146 87.244 376.491C88.741 372.783 94.023 367 95.914 367C96.682 367 99.246 368.039 101.613 369.308ZM97.153 391.965C96.397 393.045 93.334 396.609 90.347 399.884C84.061 406.776 80.118 412.781 80.767 414.472C81.016 415.121 84.414 417.582 88.318 419.941C92.222 422.3 95.416 424.628 95.416 425.115C95.416 425.602 96.091 426 96.916 426C97.741 426 98.416 426.45 98.416 427C98.416 428.673 102 428.117 103.761 426.171C106.261 423.409 105.882 422.603 99.916 418C94.342 413.7 93.23 411.23 95.877 409.032C96.681 408.365 97.641 406.848 98.01 405.66C98.379 404.472 100.421 401.882 102.549 399.904C107.176 395.6 107.365 393.992 103.512 391.716C99.795 389.52 98.839 389.558 97.153 391.965ZM400.816 397.75C399.728 398.712 398.18 399.648 397.377 399.829C392.37 400.956 390.535 409.119 394.416 413C395.516 414.1 396.753 415.026 397.166 415.058C397.579 415.089 399.716 415.304 401.916 415.534C404.116 415.764 407.323 415.565 409.042 415.091C415.375 413.346 419.779 416.237 416.216 419.8C414.689 421.327 409.947 421.349 407.531 419.84C406.018 418.895 405.084 419.1 402.492 420.946C400.667 422.245 399.445 423.913 399.625 424.856C400.063 427.139 406.121 429.039 410.916 428.397C415.13 427.833 423.416 424.061 423.416 422.708C423.416 422.271 424.541 420.699 425.916 419.217C428.879 416.021 428.874 416.071 426.757 411.184C423.874 404.53 418.483 403.045 407.602 405.905C402.94 407.13 401.416 406.747 401.416 404.349C401.416 403.14 402.419 402.887 406.166 403.151C411.837 403.551 417.416 401.49 417.416 398.995C417.416 395.631 404.32 394.649 400.816 397.75ZM380.416 406.786C379.041 407.71 377.675 408.794 377.381 409.194C377.087 409.595 375.062 410.661 372.881 411.565C368.089 413.55 360.016 417.149 359.656 417.461C359.513 417.585 361.201 420.969 363.406 424.982C365.612 428.994 367.416 432.863 367.416 433.579C367.416 434.296 367.853 435.152 368.388 435.482C368.922 435.813 370.244 438.082 371.325 440.526L373.29 444.97L378.103 442.597C385.512 438.945 390.109 437 391.331 437C391.943 437 393.225 436.583 394.18 436.073C395.135 435.563 396.765 434.879 397.802 434.552C399.618 433.981 399.621 433.884 397.897 431.979C395.629 429.473 392.798 429.478 386.916 432C381.032 434.522 379.219 434.515 377.625 431.962C376.463 430.103 376.683 429.784 380.134 428.313C382.214 427.426 385.263 426.413 386.91 426.061C390.205 425.356 391.31 422.783 389.339 420.408C387.874 418.642 384.494 419.177 378.34 422.151C375.637 423.457 373.836 423.82 373.203 423.187C371.673 421.657 372.734 418.561 374.927 418.158C376.021 417.958 377.591 417.215 378.416 416.508C379.241 415.801 381.341 414.92 383.082 414.55C387.023 413.713 387.748 411.973 385.792 408.051C384.05 404.559 383.811 404.503 380.416 406.786ZM126.916 412.256C124.716 414.01 121.925 416.47 120.714 417.723C119.503 418.975 118.14 420 117.687 420C117.233 420 114.52 421.76 111.658 423.91C108.796 426.061 105.883 428.013 105.185 428.248C104.177 428.587 104.194 429.011 105.266 430.311C107.014 432.428 113.198 433.618 114.691 432.125C116.35 430.466 118.89 430.742 123.982 433.136C127.079 434.592 128.349 435.731 127.972 436.715C127.144 438.874 128.444 443 129.953 443C130.679 443 131.992 443.719 132.87 444.597C135.824 447.551 137.078 445.61 137.799 436.96C138.176 432.439 138.859 428.012 139.316 427.12C139.774 426.229 140.382 422.781 140.669 419.457L141.189 413.414L137.354 411.207C132.416 408.365 131.707 408.436 126.916 412.256ZM131.143 424.006C130.888 428.504 128.897 429.863 125.347 427.963C123.224 426.827 123.235 426.782 126.505 423.408C128.322 421.533 130.16 420 130.589 420C131.019 420 131.268 421.803 131.143 424.006ZM149.058 423.04C148.705 424.806 148.416 428.248 148.416 430.691C148.416 433.133 147.928 436.044 147.331 437.159C146.734 438.274 146.04 441.593 145.787 444.535C145.285 450.389 145.85 451.106 152 452.425C154.807 453.027 155.347 452.7 158 448.793C159.604 446.432 161.703 443.628 162.666 442.561C163.629 441.495 164.416 440.258 164.416 439.811C164.416 439.365 165.37 439 166.536 439C168.553 439 168.63 439.355 168.103 446.25C167.798 450.238 167.262 454.247 166.91 455.16C166.232 456.922 167.102 457.357 173.416 458.408C176.741 458.961 177.164 458.683 181.891 452.835C184.628 449.45 188.088 444.754 189.581 442.4C191.074 440.046 193.268 437.148 194.456 435.96C197.201 433.215 195.948 431.803 190.495 431.495C186.896 431.292 186.15 431.666 183.736 434.883C182.243 436.873 180.763 438.725 180.446 439C180.129 439.275 179.082 440.738 178.12 442.25C177.157 443.762 175.895 445 175.313 445C174.683 445 174.498 443.891 174.853 442.25C175.434 439.575 175.775 437.843 176.999 431.38C177.529 428.579 177.3 428.191 174.753 427.583C173.193 427.21 171.228 426.703 170.388 426.456C169.5 426.194 166.699 428.1 163.703 431.003C158.081 436.451 155.793 437.364 156.825 433.75C158.085 429.336 158.648 422.261 157.782 421.726C157.297 421.427 155.281 420.878 153.3 420.506C149.856 419.86 149.672 419.97 149.058 423.04ZM340.416 422.927C339.591 423.372 337.116 424.657 334.916 425.781C329.221 428.693 327.468 432.721 328.728 440C328.966 441.375 329.218 443.085 329.288 443.8C329.359 444.514 330.982 446.711 332.895 448.682C336.096 451.978 336.942 452.305 343.47 452.772C349.398 453.196 351.277 452.925 354.881 451.124C360.237 448.45 361.223 447.281 361.942 442.757C362.415 439.781 362.177 439.059 360.55 438.542C357.031 437.426 353.416 438.966 353.416 441.583C353.416 443.18 352.477 444.434 350.525 445.444C349.256 446.1 341.463 444.306 340.74 443.358C337.662 439.323 336.999 433.412 339.311 430.626C340.868 428.751 346.58 428.461 349.241 430.123C351.664 431.636 357.631 428.725 356.76 426.455C355.387 422.875 344.762 420.582 340.416 422.927ZM310.643 431.04C308.484 431.907 308.44 432.122 309.778 435.323C310.552 437.177 311.932 441.973 312.843 445.98C313.755 449.988 315.156 454.834 315.956 456.75C317.164 459.642 317.795 460.132 319.664 459.631C320.903 459.299 322.928 459.021 324.166 459.014C325.96 459.003 326.416 458.433 326.416 456.2C326.416 454.66 325.931 452.915 325.338 452.322C324.227 451.211 323.031 447.163 321.262 438.522C320.701 435.785 319.816 432.747 319.294 431.772C318.266 429.851 314.415 429.525 310.643 431.04ZM291.416 434.114C279.629 435.658 277.95 436.278 277.606 439.219C277.435 440.676 277.995 443.219 278.849 444.87C279.703 446.522 280.14 448.555 279.82 449.389C279.5 450.222 279.616 451.488 280.077 452.202C280.539 452.916 280.95 454.175 280.99 455C281.16 458.424 282.736 465.08 283.487 465.544C285.011 466.486 292.587 464.717 293.135 463.291C293.436 462.507 293.128 460.83 292.45 459.564C290.141 455.249 291.386 453.649 297.924 452.527C303.375 451.593 303.916 451.274 303.916 449C303.916 446.739 303.533 446.506 299.916 446.564C297.716 446.599 294.627 446.824 293.051 447.064C291.073 447.365 289.837 446.959 289.056 445.75C287.1 442.72 289.441 440.542 295.019 440.201C300.637 439.858 305.067 437.14 304.103 434.628C303.417 432.84 301.68 432.77 291.416 434.114ZM217.1 436.388C209.552 439.2 207.2 443.016 207.305 452.282C207.369 457.926 209.507 462.884 211.916 462.975C212.466 462.995 214.266 463.723 215.916 464.592C219.737 466.603 231.105 466.785 234.448 464.888C235.794 464.125 237.735 462.6 238.761 461.5C244.89 454.932 242.998 442.166 235.235 437.711C230.992 435.276 221.87 434.61 217.1 436.388ZM263.416 437.081C259.291 437.543 254.055 438.185 251.78 438.505L247.643 439.088L248.082 451.794C248.323 458.782 248.707 465.063 248.936 465.75C249.196 466.529 251.248 467 254.385 467C259.885 467 259.905 466.972 259.47 459.75C259.223 455.647 259.336 455.594 267.666 455.98C271.224 456.144 271.416 455.996 271.416 453.076V450H265.023C260.6 450 258.471 449.587 258.116 448.659C257.14 446.117 259.168 444.811 265.197 444.1C271.979 443.301 274.655 441.668 274.214 438.598C273.857 436.107 273.074 435.997 263.416 437.081ZM231.62 446.224C233.508 448.678 234.053 454 232.416 454C231.866 454 231.416 454.643 231.416 455.429C231.416 458.13 228.369 460 223.966 460C220.134 460 219.523 459.673 218.43 457.033C216.854 453.23 218.721 444.366 221.252 443.629C224.633 442.644 229.875 443.956 231.62 446.224Z" fill="#F4F6FF"/>
</svg>
